<?xml version="1.0" ?><!DOCTYPE svg  PUBLIC '-//W3C//DTD SVG 1.1//EN'  'http://www.w3.org/Graphics/SVG/1.1/DTD/svg11.dtd'><svg enable-background="new 0 0 256 256" id="Layer_2" version="1.1" viewBox="0 0 256 256" xml:space="preserve" xmlns="http://www.w3.org/2000/svg" xmlns:xlink="http://www.w3.org/1999/xlink"><g><g><g id="XMLID_636_"><path d="     M56.1,203.6" fill="none" stroke="#000000" stroke-linecap="round" stroke-linejoin="round" stroke-miterlimit="10" stroke-width="9"/></g><g><g><path d="M163.2,173.7H98c-4,0-7.2-3.2-7.2-7.2V124c0-4,3.2-7.2,7.2-7.2h65.2c4,0,7.2,3.2,7.2,7.2v42.4      C170.4,170.5,167.2,173.7,163.2,173.7z" fill="#3C92CA"/></g><g id="XMLID_635_"><g><path d="M130.6,159.8c-2.2,0-3.9-1.8-3.9-3.9c0-2.9,0-5.8,0-8.7c0-0.5-0.1-0.6-0.4-0.9c-2.9-2.1-3.8-5.7-2.4-8.8       c1.2-2.6,3.8-4.4,6.7-4.4c0.4,0,0.9,0,1.3,0.1c3.6,0.7,6,3.6,6,7.1c0,2.4-1,4.5-3,5.9c-0.4,0.3-0.4,0.5-0.4,0.9       c0,2.9,0,5.8,0,8.7c0.1,1.4-0.7,2.8-2,3.5C132,159.6,131.3,159.8,130.6,159.8z"/></g><g><g><path d="M130.6,133.7c0.4,0,0.8,0,1.2,0.1c3.2,0.7,5.5,3.3,5.5,6.5c0,2.2-0.9,4.1-2.7,5.4c-0.5,0.4-0.7,0.8-0.7,1.4        c0,2.9,0,5.8,0,8.6v0c0.1,1.2-0.5,2.4-1.6,2.9c-0.6,0.3-1.2,0.4-1.7,0.4c-1.8,0-3.3-1.5-3.3-3.3c0,0,0,0,0,0        c0-2.9,0-5.8,0-8.7c0-0.6-0.1-1-0.6-1.4c-2.6-1.9-3.5-5.2-2.2-8.1C125.6,135.3,128,133.7,130.6,133.7 M130.6,132.5        L130.6,132.5c-3,0-5.9,1.9-7.2,4.7c-1.5,3.4-0.5,7.3,2.6,9.6c0.1,0.1,0.1,0.1,0.1,0.1c0,0,0,0.1,0,0.3c0,2.9,0,5.8,0,8.7        c0,2.5,2,4.6,4.5,4.6c0.8,0,1.5-0.2,2.3-0.6c1.5-0.7,2.4-2.3,2.3-4c0-2.9,0-5.8,0-8.6c0-0.3,0-0.3,0.2-0.4        c2.1-1.5,3.2-3.8,3.2-6.4c0-3.8-2.7-6.9-6.5-7.7C131.5,132.5,131.1,132.5,130.6,132.5L130.6,132.5z"/></g></g></g></g></g><g><path d="M214.7,39.8c0-3-2.5-5.4-5.5-5.4c0,0,0,0-0.1,0c-3,0-5.4,2.5-5.4,5.5l0.1,8.7C160.4,8.2,92.2,9.5,50.5,52.2c0,0,0,0,0,0    c-14.7,15-24.7,33.8-29,54.2c-4.2,19.9-2.7,40.6,4.1,59.7c0.8,2.2,2.9,3.6,5.2,3.6c0.6,0,1.2-0.1,1.8-0.3c2.8-1,4.3-4.2,3.3-7    c-12.9-36-4.3-75.3,22.3-102.6c0,0,0,0,0,0c37.5-38.3,98.7-39.6,137.8-3.5l-8.5,0.1c-3,0-5.4,2.5-5.4,5.5c0,3,2.5,5.4,5.5,5.4    c0,0,0,0,0.1,0l21.8-0.3c3,0,5.4-2.5,5.4-5.5L214.7,39.8z"/><path d="M232.3,91.8c-1-2.8-4.2-4.3-7-3.3c-2.8,1-4.3,4.2-3.3,7c12.9,36,4.3,75.3-22.3,102.6c-18.5,18.9-43.2,29.5-69.6,29.8    c-25.4,0.3-49.6-9-68.2-26.3l8.5-0.1c3,0,5.4-2.5,5.4-5.5c0-3-2.5-5.4-5.5-5.4c0,0,0,0-0.1,0l-21.8,0.3c-3,0-5.4,2.5-5.4,5.5    l0.3,21.8c0,3,2.5,5.4,5.5,5.4c0,0,0,0,0.1,0c3,0,5.4-2.5,5.4-5.5l-0.1-8.7c20.4,19.1,46.8,29.5,74.8,29.5c0.4,0,0.9,0,1.3,0    c29.3-0.3,56.8-12.1,77.3-33.1c14.7-15,24.7-33.8,29-54.2C240.6,131.5,239.2,110.9,232.3,91.8z"/><path d="M130.6,63.2C112.1,63.2,97,78.3,97,96.8v14.8c-6.6,1.2-11.7,7-11.7,14v39.3c0,7.9,6.4,14.2,14.2,14.2h62.1    c7.9,0,14.2-6.4,14.2-14.2v-39.3c0-7-5.1-12.8-11.7-14V96.8C164.2,78.3,149.1,63.2,130.6,63.2z M130.6,74.2    c12.5,0,22.6,10.2,22.6,22.6v14.6H108V96.8C108,84.3,118.1,74.2,130.6,74.2z M164.9,164.9c0,1.8-1.5,3.3-3.3,3.3H99.5    c-1.8,0-3.3-1.5-3.3-3.3v-39.3c0-1.8,1.5-3.3,3.3-3.3h62.1c1.8,0,3.3,1.5,3.3,3.3V164.9z"/></g></g></svg>