<?xml version="1.0" ?><!DOCTYPE svg  PUBLIC '-//W3C//DTD SVG 1.1//EN'  'http://www.w3.org/Graphics/SVG/1.1/DTD/svg11.dtd'><svg enable-background="new 0 0 24 24" height="24px" id="Layer_1" version="1.1" viewBox="0 0 24 24" width="24px" xml:space="preserve" xmlns="http://www.w3.org/2000/svg" xmlns:xlink="http://www.w3.org/1999/xlink"><g><circle cx="8" cy="4" r="4"/><path d="M14.028,10.57C13.432,10.217,12.744,10,12,10H4c-2.209,0-4,1.791-4,4v6h9L14.028,10.57z"/><path d="M16,9L8,24h16L16,9z M16,23c-0.553,0-1-0.447-1-1s0.447-1,1-1s1,0.447,1,1S16.553,23,16,23z M16,20c-0.553,0-1-0.447-1-1   v-5c0-0.553,0.447-1,1-1s1,0.447,1,1v5C17,19.553,16.553,20,16,20z"/></g></svg>