<?xml version="1.0" ?><!DOCTYPE svg  PUBLIC '-//W3C//DTD SVG 1.1//EN'  'http://www.w3.org/Graphics/SVG/1.1/DTD/svg11.dtd'><svg enable-background="new 0 0 256 256" height="256px" id="Layer_1" version="1.1" viewBox="0 0 256 256" width="256px" xml:space="preserve" xmlns="http://www.w3.org/2000/svg" xmlns:xlink="http://www.w3.org/1999/xlink"><g><g><path clip-rule="evenodd" d="M63.533,141.78c23.497-15.304,42.539-34.622,57.794-57.354     c-0.839,17.598-4.635,33.415-11.226,47.56c19.953-12.125,32.604-26.932,42.6-42.699c12.061,14.96,26.386,26.801,42.608,36.027     c-4.633,36.616-26.526,94.351-59.035,103.142c-2.709,0.732-5.482,1.107-8.291,1.107c-26.46,0-45.099-33.363-53.822-54.402     C70.089,165.341,66.23,153.617,63.533,141.78L63.533,141.78z M55.629,149.008c1.019,32.355-4.792,56.692-18.351,71.929     c17.858,0.67,36.014-0.004,50.927-3.44C99.318,230.458,112.667,239,127.982,239c15.321,0,28.676-8.544,39.789-21.508     c14.919,3.44,33.082,4.114,50.95,3.444c-13.571-15.248-19.382-39.616-18.35-72.011c3.466-13.772,5.271-26.714,5.271-36.752     c0-39.597-31.606-72.026-71.718-74.963c-0.646-0.049-1.295-0.088-1.945-0.121l-0.021-0.001c-0.655-0.031-1.313-0.057-1.97-0.073     h-0.012c-0.661-0.019-1.328-0.025-1.995-0.025c-0.665,0-1.33,0.009-1.991,0.025h-0.012c-0.659,0.016-1.314,0.041-1.969,0.073     l-0.021,0.001c-0.649,0.032-1.299,0.071-1.946,0.121c-40.102,2.937-71.702,35.365-71.702,74.963     C50.341,122.232,52.152,135.207,55.629,149.008L55.629,149.008z M143.73,142.876c5.412-3.135,10.886-4.609,16.413-4.561     c5.395,0.048,10.729,1.561,16.004,4.394c1.587,0.687,2.697,2.269,2.697,4.109c0,2.472-1.999,4.476-4.465,4.476h-28.541     c-1.038,0-1.995-0.356-2.756-0.955l-0.006-0.006l-0.076-0.061l-0.008-0.008l-0.074-0.061l-0.01-0.01l-0.07-0.063l-0.012-0.012     l-0.066-0.063l-0.012-0.012l-0.142-0.139l-0.016-0.018l-0.059-0.062l-0.018-0.021c-0.708-0.79-1.14-1.839-1.14-2.987     c0-1.041,0.355-2,0.952-2.763l0.006-0.006l0.061-0.076l0.006-0.008l0.063-0.076l0.008-0.008l0.063-0.071l0.012-0.012l0.063-0.066     l0.012-0.012l0.142-0.142l0.018-0.016l0.061-0.057l0.02-0.02C143.122,143.25,143.414,143.044,143.73,142.876L143.73,142.876z      M81.622,151.294c-1.041,0-1.997-0.356-2.756-0.955l-0.006-0.006l-0.078-0.061l-0.008-0.008l-0.074-0.061l-0.008-0.01     l-0.072-0.063l-0.01-0.012l-0.069-0.063l-0.012-0.012l-0.139-0.139l-0.016-0.018l-0.059-0.062l-0.018-0.021     c-0.71-0.79-1.142-1.839-1.142-2.987c0-1.041,0.356-2,0.952-2.763l0.006-0.006l0.061-0.076l0.008-0.008l0.063-0.076l0.008-0.008     l0.063-0.071l0.01-0.012l0.064-0.066l0.012-0.012l0.139-0.142l0.018-0.016l0.061-0.057l0.021-0.02     c0.262-0.237,0.555-0.443,0.87-0.611c5.412-3.135,10.886-4.609,16.415-4.561c5.439,0.048,10.81,1.576,16.112,4.44     c1.528,0.712,2.588,2.263,2.588,4.063c0,2.472-1.999,4.476-4.463,4.476H81.622L81.622,151.294z" fill="#3B4552" fill-rule="evenodd"/><path clip-rule="evenodd" d="M149.141,207.551c11.979-4.323,27.527-12.263,37.26-20.479     c10.223-8.628,19.229-19.466,24.985-31.608l1.381-2.915l6.356,0.462c8.376,0.616,16.565-2.164,22.912-7.659     c6.356-5.507,10.27-13.24,10.882-21.646c0.61-8.397-2.163-16.603-7.646-22.964c-4.748-5.509-11.212-9.231-18.37-10.504     l-2.872-0.511l-0.823-2.805c-5.608-19.127-17.109-35.794-32.683-48.131C172.761,24.721,150.627,17,127.982,17     c-22.64,0-44.764,7.715-62.527,21.786c-15.576,12.339-27.07,29.01-32.678,48.139l-0.821,2.804l-2.871,0.512     c-7.146,1.276-13.612,5-18.357,10.502c-5.482,6.361-8.255,14.567-7.645,22.964c0.612,8.405,4.528,16.139,10.882,21.646     c6.346,5.493,14.539,8.273,22.912,7.659l3.722-0.271c3.047-0.223,5.369-2.88,5.154-5.939c-0.031-0.445-0.125-0.885-0.25-1.312     c-2.326-7.82-3.97-15.815-4.67-23.952c-2.537-29.49,8.197-55.636,31.463-74.068c15.816-12.532,35.537-19.317,55.688-19.317     c20.158,0,39.879,6.79,55.703,19.323c23.372,18.513,34.031,44.467,31.484,74.063c-2.271,26.38-11.104,45.099-31.482,62.297     c-9.136,7.713-23.947,15.26-35.157,19.402l-2.855,1.057l-2.134-2.18c-1.849-1.89-4.348-2.94-6.99-2.94     c-5.406,0-9.787,4.391-9.787,9.812c0,5.419,4.38,9.813,9.787,9.813c4.623,0,8.625-3.253,9.579-7.781l0.542-2.574L149.141,207.551     L149.141,207.551z" fill="#2B78C2" fill-rule="evenodd"/></g></g></svg>