<?xml version="1.0" ?><svg height="512" id="svg4156" version="1.1" width="512" xmlns="http://www.w3.org/2000/svg" xmlns:cc="http://creativecommons.org/ns#" xmlns:dc="http://purl.org/dc/elements/1.1/" xmlns:inkscape="http://www.inkscape.org/namespaces/inkscape" xmlns:rdf="http://www.w3.org/1999/02/22-rdf-syntax-ns#" xmlns:sodipodi="http://sodipodi.sourceforge.net/DTD/sodipodi-0.dtd" xmlns:svg="http://www.w3.org/2000/svg"><defs id="defs4158"/><g id="layer1" transform="translate(0,448)"><path d="M 256,-448 C 114.6151,-448 0,-333.3841 0,-192 0,-50.615 114.6151,64 256,64 397.3848,64 512,-50.615 512,-192 512,-333.3841 397.3848,-448 256,-448 z m 37.3438,118.3124 c 22.9383,0 44.0039,6.6459 59.5625,20.2813 14.4852,12.6947 23.666,31.4383 25.4063,54.625 34.2646,15.8794 57.7812,53.154 57.7812,96.1875 0,57.0376 -41.676,104.2812 -94.0312,104.2812 l -186.4376,0 c -44.4393,0 -79.718697,-40.0419 -79.718697,-88.2187 0,-39.8918 23.9589,-74.1252 57.624997,-84.8125 -0.061,-1.1692 -0.2813,-2.2774 -0.2813,-3.4688 0,-34.8773 25.6517,-64.1562 58.2188,-64.1562 8.1183,0 15.816,1.9466 22.8125,5.25 6.79,-13.7347 17.2142,-23.6411 29.5,-29.875 14.776,-7.4974 31.9377,-10.0938 49.5625,-10.0938 z m 0,16 c -16.0147,0 -30.7606,2.4665 -42.3438,8.3438 -11.5827,5.8773 -20.2354,14.7907 -25.2812,29.5625 a 8.0007995,8.0007995 0 0 1 -12.1875,3.9687 c -6.5087,-4.5847 -13.9755,-7.1562 -22.0625,-7.1562 -22.8909,0 -42.2188,21.0059 -42.2188,48.1562 0,2.7912 0.2422,5.5587 0.6563,8.2813 a 8.0007995,8.0007995 0 0 1 -6.2187,9 c -29.0002,6.2329 -51.781297,35.2924 -51.781297,71 0,40.4461 28.952697,72.2187 63.718697,72.2187 l 186.4376,0 c 42.6783,0 78.0312,-38.9722 78.0312,-88.2812 0,-38.8751 -22.2755,-71.4912 -52.3438,-83.375 a 8.0007995,8.0007995 0 0 1 -5.0312,-7.25 c -0.5562,-21.9474 -8.2597,-37.5387 -20.375,-48.1562 -12.1153,-10.6178 -29.1432,-16.3126 -49,-16.3126 z m -91.375,61.7188 a 8.0007995,8.0007995 0 0 1 7.9062,10.9062 l -6.0624,16.1876 c 39.152,-26.6075 92.9374,-22.4972 127.5624,12.3437 a 7.9759877,8.0256915 0 1 1 -11.2812,11.3437 c -29.5412,-29.7253 -75.2359,-32.9727 -108.3125,-9.75 l 19.9063,-3.4062 a 8.0068839,8.0068839 0 1 1 2.7187,15.7812 l -45.2187,7.7188 c -2.5341,0.4343 -6.5208,-0.086 -9.0626,-3.1875 -2.5414,-3.1011 -2.3021,-7.0448 -1.4062,-9.4375 l 16.1875,-43.1875 a 8.0007995,8.0007995 0 0 1 7.0625,-5.3125 z m 121.875,100.5625 c 0.356,-0.015 0.7096,-0.019 1.0938,0 2.3046,0.1147 5.0314,0.9867 6.9374,3.3125 2.5418,3.1011 2.2709,7.0447 1.375,9.4375 l -16.1562,43.1875 a 8.0007995,8.0007995 0 1 1 -14.9688,-5.5938 l 6.0626,-16.2187 c -39.152,26.6052 -92.9071,22.5275 -127.5313,-12.3125 a 7.9759877,8.0256915 0 1 1 11.25,-11.3438 c 29.5519,29.7362 75.2956,32.9692 108.375,9.7188 l -19.9687,3.4375 a 8.0068924,8.0068924 0 0 1 -2.7188,-15.7813 l 45.2188,-7.75 c 0.3166,-0.055 0.6752,-0.079 1.0312,-0.094 z" id="path15257" style="fill:#4d4d4d;fill-opacity:1;fill-rule:nonzero;stroke:none"/></g></svg>