<?xml version="1.0" ?><!DOCTYPE svg  PUBLIC '-//W3C//DTD SVG 1.1//EN'  'http://www.w3.org/Graphics/SVG/1.1/DTD/svg11.dtd'><svg enable-background="new 0 0 512 512" height="512px" id="Layer_1" version="1.1" viewBox="0 0 512 512" width="512px" xml:space="preserve" xmlns="http://www.w3.org/2000/svg" xmlns:xlink="http://www.w3.org/1999/xlink"><circle cx="258.412" cy="255.677" fill="#222211" r="245.588" stroke="#000000" stroke-miterlimit="10"/><g><path d="M415.828,105.12H100.995c-10.383,0-18.804,8.421-18.804,18.805v198.89c0,10.385,8.421,18.805,18.804,18.805   h124.628l-16.784,40.385h-7.698c-6.688,0-12.115,5.426-12.115,12.114c0,6.688,5.427,12.115,12.115,12.115h114.542   c6.688,0,12.117-5.428,12.117-12.115c0-6.688-5.429-12.114-12.117-12.114h-7.698l-16.783-40.385h124.627   c10.383,0,18.804-8.42,18.804-18.805v-198.89C434.633,113.542,426.212,105.12,415.828,105.12z M355.013,329.451   c-4.865,0-8.812-3.945-8.812-8.811s3.945-8.812,8.812-8.812c4.863,0,8.812,3.945,8.812,8.812   C363.823,325.506,359.876,329.451,355.013,329.451z M383.648,329.451c-4.865,0-8.812-3.945-8.812-8.811s3.946-8.812,8.812-8.812   c4.862,0,8.811,3.945,8.811,8.812C392.459,325.506,388.512,329.451,383.648,329.451z M401.075,293.99   c0,4.543-3.683,8.226-8.225,8.226H123.974c-4.543,0-8.226-3.683-8.226-8.226V150.862c0-4.543,3.682-8.225,8.226-8.225h268.875   c4.543,0,8.227,3.682,8.227,8.225V293.99L401.075,293.99z" fill="#FFFFFF"/><path d="M214.448,224.092h-2.465v-40.808c0-2.173-1.757-3.93-3.924-3.93h-15.741c-1.354,0-2.615,0.701-3.327,1.854   l-26.434,42.546c-0.86,1.371-1.308,2.954-1.308,4.572v5.219c0,2.175,1.755,3.93,3.924,3.93h29.897v9.746   c0,4.669,3.787,8.455,8.455,8.455c4.67,0,8.456-3.786,8.456-8.455v-9.746h2.467c3.694,0,6.687-2.994,6.687-6.694   C221.136,227.086,218.143,224.092,214.448,224.092z M195.071,207.181v16.911h-17.14v-0.235l10.212-16.676   c2.581-4.813,4.577-9.275,7.043-14.203h0.47C195.3,197.906,195.071,202.603,195.071,207.181z" fill="#FFFFFF"/><path d="M256.634,178.064c-19.733,0-29.129,17.495-29.129,39.568c0.128,21.603,8.812,39.335,28.534,39.335   c19.491,0,29.003-16.205,29.003-39.806C285.041,196.266,277.055,178.064,256.634,178.064z M256.507,243.464   c-6.918,0-11.15-8.335-11.036-25.832c-0.114-17.73,4.349-26.065,10.922-26.065c7.158,0,10.806,8.927,10.806,25.832   C267.199,234.778,263.436,243.464,256.507,243.464z" fill="#FFFFFF"/><path d="M344.847,224.092h-2.466v-40.808c0-2.173-1.756-3.93-3.923-3.93h-15.742c-1.353,0-2.614,0.701-3.326,1.854   l-26.433,42.546c-0.86,1.371-1.308,2.954-1.308,4.572v5.219c0,2.175,1.755,3.93,3.924,3.93h29.896v9.746   c0,4.669,3.786,8.455,8.455,8.455c4.67,0,8.456-3.786,8.456-8.455v-9.746h2.466c3.695,0,6.689-2.994,6.689-6.694   C351.536,227.086,348.542,224.092,344.847,224.092z M325.47,207.181v16.911h-17.14v-0.235l10.211-16.676   c2.581-4.813,4.576-9.275,7.044-14.203h0.47C325.699,197.906,325.47,202.603,325.47,207.181z" fill="#FFFFFF"/></g><g/><g/><g/><g/><g/><g/></svg>