<?xml version="1.0" ?><!DOCTYPE svg  PUBLIC '-//W3C//DTD SVG 1.1//EN'  'http://www.w3.org/Graphics/SVG/1.1/DTD/svg11.dtd'><svg enable-background="new 0 0 91 91" height="91px" id="Layer_1" version="1.1" viewBox="0 0 91 91" width="91px" xml:space="preserve" xmlns="http://www.w3.org/2000/svg" xmlns:xlink="http://www.w3.org/1999/xlink"><g><path d="M87.586,28.176v-1.742L45.457,1.273L3.453,26.353v1.823H0.786v9.299h89.465v-9.299H87.586z M82.429,32.318H8.61V29.28   l36.847-22l36.972,22.081V32.318z"/><path d="M84.498,75.648h-3.554V39.194H10.093v36.454H6.54v4.533l-4.254,6.574V90h86.467v-3.244l-4.254-6.574V75.648z    M67.371,41.704c2.87,0,5.207,2.337,5.207,5.208v28.736H62.163V46.912C62.163,44.041,64.5,41.704,67.371,41.704z M45.518,41.704   c2.873,0,5.208,2.337,5.208,5.208v28.736H40.311V46.912C40.311,44.041,42.648,41.704,45.518,41.704z M18.219,46.912   c0-2.871,2.336-5.208,5.208-5.208c2.871,0,5.207,2.337,5.207,5.208v28.736H18.219V46.912z"/><circle cx="45.52" cy="21.44" r="7.104"/></g></svg>