<?xml version="1.0" ?><!DOCTYPE svg  PUBLIC '-//W3C//DTD SVG 1.1//EN'  'http://www.w3.org/Graphics/SVG/1.1/DTD/svg11.dtd'><svg enable-background="new 0 0 256 256" height="256px" id="Layer_1" version="1.1" viewBox="0 0 256 256" width="256px" xml:space="preserve" xmlns="http://www.w3.org/2000/svg" xmlns:xlink="http://www.w3.org/1999/xlink"><symbol id="New_Symbol_2" viewBox="-36.193 -36.194 72.385 72.387"><path d="M-2.271,36.193c-8.304-0.516-15.853-3.825-21.716-9l15.034-15.038c1.932,1.424,4.207,2.393,6.682,2.767   V36.193z" fill="#BABCBE"/><path d="M-36.193-2.27c0.513-8.308,3.823-15.853,8.997-21.716l15.036,15.034c-1.423,1.933-2.391,4.207-2.767,6.682   H-36.193z" fill="#919396"/><path d="M-27.194,23.985c-5.175-5.864-8.485-13.413-8.999-21.725h21.266c0.375,2.479,1.346,4.758,2.771,6.687   L-27.194,23.985z" fill="#A5A7AA"/><path d="M23.986,27.193c-5.867,5.175-13.413,8.485-21.723,9V14.921c2.478-0.37,4.756-1.342,6.687-2.767   L23.986,27.193z" fill="#221E20"/><path d="M12.157-8.956L27.195-23.99c5.176,5.864,8.485,13.413,8.997,21.72H14.924   C14.551-4.749,13.583-7.023,12.157-8.956z" fill="#59595B"/><path d="M36.192,2.261c-0.512,8.312-3.821,15.86-9.001,21.725L12.155,8.951c1.423-1.933,2.396-4.211,2.769-6.69   H36.192z" fill="#404041"/><path d="M-23.987-27.197c5.864-5.176,13.412-8.485,21.716-8.997v21.268c-2.476,0.374-4.75,1.342-6.682,2.767   L-23.987-27.197z" fill="#808183"/><path d="M2.263-36.194c8.31,0.512,15.856,3.821,21.723,8.997L8.95-12.16c-1.931-1.424-4.208-2.393-6.687-2.771   V-36.194z" fill="#6E6F70"/></symbol><symbol id="New_Symbol_4" viewBox="-7.252 -7.254 14.505 14.509"><path d="M5.128-5.129c-2.83-2.833-7.423-2.833-10.257,0c-2.828,2.834-2.834,7.427,0,10.26   c2.834,2.83,7.427,2.834,10.257,0C7.962,2.297,7.962-2.295,5.128-5.129z" fill="#404041"/></symbol><use height="72.387" overflow="visible" transform="matrix(3.5366 0 0 -3.5366 127.877 128.5059)" width="72.385" x="-36.193" xlink:href="#New_Symbol_2" y="-36.194"/></svg>