<?xml version="1.0" ?><!DOCTYPE svg  PUBLIC '-//W3C//DTD SVG 1.1//EN'  'http://www.w3.org/Graphics/SVG/1.1/DTD/svg11.dtd'><svg enable-background="new 0 0 210 210" height="210px" id="Layer_1" version="1.1" viewBox="0 0 210 210" width="210px" xml:space="preserve" xmlns="http://www.w3.org/2000/svg" xmlns:xlink="http://www.w3.org/1999/xlink"><g><path d="M105,208C48.206,208,2,161.795,2,105C2,48.207,48.206,2,105,2c56.796,0,103,46.207,103,103   C208,161.795,161.796,208,105,208z M105,11.809c-51.385,0-93.191,41.806-93.191,93.191c0,51.387,41.807,93.191,93.191,93.191   c51.387,0,93.191-41.805,93.191-93.191C198.191,53.615,156.387,11.809,105,11.809z" fill="#333333"/><g><path d="M91.867,127.8c-12.043,0-21.827-9.796-21.827-21.832V81.671H55.867c-8.044,0-14.629,6.58-14.629,14.625    v27.897c0,8.049,5.598,14.637,12.431,14.637c2.44,0,6.339,0,8.855,0c1.308,0,1.232,9.313,1.164,12.791    c-0.015,0.723,0.528,1.162,1.215,0.955c12.042-3.706,12.761-13.746,14.317-13.746c3.478,0,9.857,0,13.705,0h15.604    c6.764,0,12.48-4.668,14.131-10.941c-0.018-0.027-0.037-0.063-0.049-0.089H91.867z" fill="#333333"/><path d="M104.958,105.04c0.012,0.008,0.031,0.023,0.043,0.033c0.01-0.01,0.029-0.025,0.041-0.033    c-0.015-0.039-0.027-0.074-0.041-0.113C104.985,104.966,104.973,105.001,104.958,105.04z" fill="#333333"/><path d="M152.031,57.375H91.867c-9.199,0-16.728,7.518-16.728,16.71v31.883c0,9.196,7.528,16.729,16.728,16.729    h17.824c4.4,0,11.684,0,15.662,0c1.783,0,2.598,11.478,16.361,15.712c0.794,0.239,1.408-0.267,1.397-1.087    c-0.085-3.98-0.177-14.625,1.321-14.625c2.877,0,7.328,0,10.115,0c7.818,0,14.213-7.533,14.213-16.729V74.084    C168.762,64.893,161.226,57.375,152.031,57.375z M126.494,104.396c0,1.479-1.198,2.673-2.663,2.673h-30.65    c-1.472,0-2.675-1.194-2.675-2.673v-1.889c0-1.479,1.203-2.686,2.675-2.686h30.65c1.465,0,2.663,1.207,2.663,2.686V104.396z     M154.547,90.432c0,1.481-1.189,2.68-2.656,2.68H92.01c-1.467,0-2.652-1.198-2.652-2.68v-1.894c0-1.473,1.186-2.681,2.652-2.681    h59.881c1.467,0,2.656,1.208,2.656,2.681V90.432z M154.547,76.479c0,1.467-1.189,2.67-2.656,2.67H92.01    c-1.467,0-2.652-1.203-2.652-2.67v-1.897c0-1.482,1.186-2.675,2.652-2.675h59.881c1.467,0,2.656,1.192,2.656,2.675V76.479z" fill="#333333"/></g></g></svg>