<?xml version="1.0" ?>
<!DOCTYPE svg  PUBLIC '-//W3C//DTD SVG 1.1//EN'  'http://www.w3.org/Graphics/SVG/1.1/DTD/svg11.dtd'>
<svg enable-background="new 0 0 256 256" height="256px" id="Layer_1"
	version="1.1" viewBox="0 0 256 256" width="256px" xml:space="preserve"
	xmlns="http://www.w3.org/2000/svg"
	xmlns:xlink="http://www.w3.org/1999/xlink">
<g>
<g>
<path clip-rule="evenodd"
	d="M198.348,47.281c-1.412,1.859-4.248-0.292-2.836-2.151     L214.5,22.412l-0.003-0.004c1.862-1.862,14.406-13.269,16.328-9.237c1.373,2.88-5.032,3.005-13.797,11.767l-0.004-0.004     L198.348,47.281L198.348,47.281z M246.096,9.902c-7.825-7.821-23.128-3.378-35.307,8.799     c-13.796,13.792-35.096,44.98-49.092,64.328c-7.699-3.161-16.552-1.259-21.729,5.366c12.006,4.208,23.396,15.598,27.61,27.598     c6.657-5.196,8.538-14.105,5.326-21.818c19.295-13.934,50.789-35.38,64.389-48.977C249.474,33.021,253.921,17.725,246.096,9.902z     "
	fill="white" fill-rule="evenodd" />
<path clip-rule="evenodd"
	d="M115.744,213.34c0.748-3.686,1.814-7.359,3.118-11.011     c-11.278-20.827-29.882-40.737-49.02-54.871c3.243-1.312,6.333-2.695,9.335-4.12c16.868,13.129,32.897,30.454,43.983,48.596     c0.62-1.338,1.262-2.674,1.921-4.007c-7.558-18.891-22.618-36.303-39.568-47.702l8.977-4.596     c14.839,10.905,27.759,25.802,35.86,42.221c12.435-22.821,29.898-48.253,12.956-65.191     c-16.936-16.932-42.377,0.509-65.213,12.949c1.632,0.804,3.253,1.661,4.865,2.567c-3.252,1.665-6.533,3.315-9.933,4.9     c-1.668-0.793-3.341-1.528-5.014-2.198c-1.333,0.659-2.667,1.301-4.005,1.921c1.329,0.812,2.659,1.655,3.99,2.526     c-3.326,1.419-6.798,2.758-10.495,3.973c-1.302-0.768-2.602-1.503-3.894-2.202c-3.679,1.313-7.375,2.385-11.088,3.133     C66.948,157.956,97.911,188.903,115.744,213.34L115.744,213.34z M48.397,177.694l-8.193,4.263     c0.378,1.979-0.568,4.833-2.366,6.549c-3.26,3.116-8.399,3.195-11.609-0.015L26.22,188.5     c-7.259-7.278,2.928-18.575,10.922-12.236l18.35-9.547c1.686,1.493,3.392,3.037,5.114,4.622L48.397,177.694L48.397,177.694z      M18.992,127.375c43.016,15.014,94.293-61.593,132.749-23.147c38.562,38.551-38.66,90.297-23.154,132.703     c2.935,8.027-2.326,23.506-32.64,2.547c-15.531-10.74-34.564-27.787-51.149-45.35l-0.642,0.693l-0.008-0.009     c-6.712,6.71-17.545,6.7-24.244,0.003l0.009-0.009c-7.765-7.763-6.269-20.551,2.713-26.45     c-9.213-12.002-21.948-31.178-14.262-38.862C10.515,127.343,14.39,125.768,18.992,127.375z"
	fill="white" fill-rule="evenodd" />
</g>
</g>
</svg>