<?xml version="1.0" ?>
<!DOCTYPE svg  PUBLIC '-//W3C//DTD SVG 1.1//EN'  'http://www.w3.org/Graphics/SVG/1.1/DTD/svg11.dtd'>
<svg enable-background="new 0 0 64 64" height="64px" id="Layer_1"
	version="1.1" viewBox="0 0 64 64" width="64px" xml:space="preserve"
	xmlns="http://www.w3.org/2000/svg"
	xmlns:xlink="http://www.w3.org/1999/xlink">
<g>
<path
	d="M18.716,11.632h26.567l-2.504-6.434h-6.246c0.027-0.202,0.045-0.408,0.045-0.617c0-2.53-2.049-4.581-4.58-4.581   c-2.529,0-4.58,2.051-4.58,4.581c0,0.209,0.02,0.415,0.047,0.617h-6.246L18.716,11.632z M31.999,2.124   c1.357,0,2.457,1.1,2.457,2.457c0,1.356-1.1,2.457-2.457,2.457c-1.355,0-2.457-1.101-2.457-2.457   C29.542,3.224,30.643,2.124,31.999,2.124z" fill="white"/>
<path
	d="M46.826,5.336h-2.381l0.645,2.191h1.736c2.848,0,5.166,2.318,5.166,5.167v43.947c0,2.849-2.318,5.167-5.166,5.167H17.173   c-2.848,0-5.166-2.318-5.166-5.167V12.694c0-2.849,2.318-5.167,5.166-5.167h1.801l0.857-2.191h-2.658   c-4.057,0-7.357,3.301-7.357,7.358v43.947c0,4.058,3.301,7.358,7.357,7.358h29.653c4.057,0,7.357-3.301,7.357-7.358V12.694   C54.184,8.637,50.883,5.336,46.826,5.336z" fill="white"/>
<rect height="1.878" width="30.087" x="16.956" y="17.966" fill="white"/>
<rect height="1.879" width="30.087" x="16.956" y="53.682" fill="white"/>
<rect height="1.879" width="19.677" x="27.366" y="25.013" fill="white"/>
<rect height="1.879" width="19.677" x="27.366" y="32.22" fill="white"/>
<rect height="1.879" width="19.677" x="27.366" y="39.427" fill="white"/>
<rect height="1.879" width="19.677" x="27.366" y="46.634" fill="white"/>
<path
	d="M25.284,25.392h-8.328v8.328h8.328V25.392z M19.868,32.195l-2.335-2.928l1.225-0.977l1.332,1.67l3.609-3.044l1.01,1.196   L19.868,32.195z" fill="white"/>
<path
	d="M16.956,48.135h8.328v-8.329h-8.328V48.135z M18.757,42.706l1.332,1.669l3.609-3.044l1.01,1.196l-4.84,4.082l-2.335-2.928   L18.757,42.706z" fill="white"/>
</g>
</svg>