<?xml version="1.0" ?>
<!DOCTYPE svg  PUBLIC '-//W3C//DTD SVG 1.1//EN'  'http://www.w3.org/Graphics/SVG/1.1/DTD/svg11.dtd'>
<svg enable-background="new 0 0 128 128" height="128px" id="Layer_1"
	version="1.1" viewBox="0 0 128 128" width="128px" xml:space="preserve"
	xmlns="http://www.w3.org/2000/svg"
	xmlns:xlink="http://www.w3.org/1999/xlink">
<g>
<g>
<g>
<path
	d="M11.502,102.098c3.193,0,5.777-2.59,5.777-5.773c0-3.191-2.584-5.78-5.777-5.78c-3.195,0-5.782,2.589-5.782,5.78     C5.72,99.508,8.307,102.098,11.502,102.098z" fill="white"/>
<path
	d="M19.885,111.21c0.266-0.073,0.536-0.132,0.805-0.192c-1.954-1.147-3.358-3.129-3.735-5.451     c-0.403-0.157-0.817-0.309-1.248-0.429c-1.304-0.36-2.722-0.562-4.208-0.562c-1.485,0-2.903,0.201-4.207,0.562     c-4.073,1.136-7.011,4.274-7.274,7.511c-0.002,0.037-0.013,0.246-0.015,0.312l0.005,0.02C0.005,113.333,0,118.096,0,118.096     C-0.001,119.145,0.794,120,1.767,120h9.446C11.78,116.066,15.266,112.497,19.885,111.21z" fill="white"/>
<path
	d="M37.751,102.098c3.193,0,5.778-2.59,5.778-5.773c0-3.191-2.584-5.78-5.778-5.78c-3.195,0-5.781,2.589-5.781,5.78     C31.97,99.508,34.557,102.098,37.751,102.098z" fill="white"/>
<path
	d="M46.135,111.21c0.266-0.073,0.536-0.132,0.805-0.192c-1.954-1.147-3.358-3.129-3.735-5.451     c-0.403-0.157-0.817-0.309-1.248-0.429c-1.304-0.36-2.722-0.562-4.208-0.562c-1.485,0-2.903,0.201-4.207,0.562     c-0.43,0.12-0.845,0.271-1.248,0.429c-0.377,2.322-1.781,4.305-3.734,5.451c0.27,0.062,0.541,0.121,0.807,0.193     c4.116,1.146,7.333,4.105,8.385,7.507C38.812,115.311,42.024,112.355,46.135,111.21z" fill="white"/>
<path
	d="M64.002,102.098c3.191,0,5.777-2.59,5.777-5.773c0-3.191-2.586-5.78-5.777-5.78c-3.195,0-5.782,2.589-5.782,5.78     C58.22,99.508,60.807,102.098,64.002,102.098z" fill="white"/>
<path
	d="M72.386,111.209c0.267-0.073,0.535-0.132,0.806-0.191c-1.955-1.148-3.354-3.129-3.731-5.451     c-0.399-0.157-0.813-0.309-1.248-0.429c-1.31-0.36-2.726-0.562-4.207-0.562c-1.486,0-2.902,0.201-4.207,0.562     c-0.431,0.12-0.845,0.271-1.249,0.431c-0.377,2.322-1.781,4.302-3.733,5.449c0.27,0.062,0.541,0.12,0.807,0.193     c4.116,1.145,7.333,4.105,8.385,7.508C65.061,115.311,68.271,112.355,72.386,111.209z" fill="white"/>
<path
	d="M90.251,102.098c3.192,0,5.778-2.59,5.778-5.773c0-3.191-2.586-5.78-5.778-5.78s-5.778,2.589-5.778,5.78     C84.473,99.508,87.059,102.098,90.251,102.098z" fill="white"/>
<path
	d="M98.636,111.209c0.267-0.073,0.535-0.132,0.806-0.191c-1.948-1.148-3.354-3.129-3.73-5.449     c-0.398-0.159-0.814-0.311-1.25-0.431c-1.303-0.36-2.725-0.562-4.206-0.562s-2.897,0.201-4.206,0.562     c-0.431,0.12-0.846,0.271-1.249,0.431c-0.378,2.32-1.776,4.302-3.729,5.449c0.271,0.062,0.541,0.119,0.808,0.192     c4.116,1.146,7.334,4.104,8.386,7.507C91.312,115.309,94.525,112.354,98.636,111.209z" fill="white"/>
<path
	d="M116.502,102.098c3.191,0,5.777-2.59,5.777-5.773c0-3.191-2.586-5.78-5.777-5.78c-3.193,0-5.781,2.589-5.781,5.78     C110.721,99.508,113.309,102.098,116.502,102.098z" fill="white"/>
<path
	d="M127.993,112.823c-0.003-0.077-0.007-0.154-0.009-0.177c-0.262-3.235-3.205-6.377-7.277-7.514     c-1.305-0.355-2.723-0.562-4.207-0.562s-2.902,0.198-4.206,0.562c-0.431,0.12-0.846,0.271-1.249,0.434     c-0.378,2.317-1.781,4.299-3.734,5.449c0.271,0.062,0.541,0.116,0.812,0.189c4.62,1.285,8.104,4.854,8.672,8.79h9.438     c0.974,0,1.768-0.854,1.771-1.896c0-0.005,0.001-0.007,0.001-0.013c0,0-0.002-5.11-0.002-5.135     C127.997,112.936,127.993,112.823,127.993,112.823z" fill="white"/>
<path
	d="M21.762,109.334c0.46,0.264,0.961,0.463,1.49,0.593c0.373,0.091,0.759,0.146,1.157,0.16     c0.073,0.003,0.144,0.011,0.218,0.011c0.075,0,0.147-0.009,0.221-0.011c0.397-0.016,0.784-0.069,1.156-0.161     c0.528-0.13,1.028-0.328,1.487-0.593c0.957-0.548,1.742-1.36,2.254-2.339c0.254-0.484,0.441-1.008,0.55-1.561     c0.07-0.361,0.109-0.733,0.109-1.115c0-0.027-0.004-0.055-0.004-0.082c-0.044-3.152-2.608-5.697-5.773-5.697     c-3.167,0-5.731,2.543-5.777,5.695c0,0.023-0.004,0.057-0.004,0.084c0,0.382,0.039,0.753,0.109,1.113     c0.108,0.553,0.295,1.071,0.549,1.561C20.017,107.973,20.803,108.785,21.762,109.334z" fill="white"/>
<path
	d="M36.123,121c0-0.018,0-0.038,0-0.039c-0.001-0.025-0.005-0.138-0.005-0.138c-0.003-0.076-0.007-0.155-0.009-0.177     c-0.018-0.221-0.049-0.437-0.09-0.646c-0.572-2.999-3.387-5.805-7.188-6.862c-0.813-0.225-1.674-0.379-2.565-0.47     c-0.329-0.034-0.661-0.059-0.998-0.07c-0.095-0.005-0.189-0.008-0.285-0.011c-0.12-0.002-0.238-0.012-0.359-0.012     c-0.12,0-0.237,0.01-0.356,0.012c-0.096,0.002-0.191,0.006-0.286,0.011c-0.336,0.014-0.668,0.036-0.997,0.069     c-0.892,0.091-1.754,0.246-2.568,0.471c-3.8,1.062-6.61,3.863-7.184,6.862c-0.041,0.216-0.073,0.432-0.09,0.648     c-0.002,0.037-0.013,0.244-0.015,0.312l0.005,0.021c0,0.004,0,0.019,0,0.021c-0.001,0.11-0.002,0.49-0.003,1     c-0.003,1.5-0.006,4.098-0.006,4.098c-0.001,1.049,0.794,1.902,1.767,1.902h19.465c0.97,0,1.763-0.854,1.767-1.895     c0-0.004,0.001-0.008,0.001-0.015c0,0-0.001-2.597-0.001-4.096C36.124,121.48,36.123,121.102,36.123,121z" fill="white"/>
<path
	d="M48.012,109.334c0.461,0.264,0.961,0.463,1.49,0.593c0.373,0.091,0.76,0.146,1.157,0.16     c0.073,0.003,0.144,0.011,0.217,0.011c0.075,0,0.148-0.009,0.222-0.012c0.395-0.015,0.779-0.068,1.149-0.159     c0.531-0.129,1.033-0.329,1.495-0.595c0.956-0.548,1.74-1.359,2.252-2.337c0.254-0.484,0.442-1.009,0.55-1.562     c0.071-0.361,0.11-0.733,0.11-1.115c0-0.027-0.004-0.055-0.004-0.082c-0.045-3.152-2.608-5.697-5.774-5.697     s-5.731,2.543-5.777,5.695c0,0.023-0.004,0.056-0.004,0.084c0,0.382,0.039,0.753,0.109,1.113     c0.108,0.553,0.296,1.071,0.549,1.561C46.267,107.973,47.053,108.785,48.012,109.334z" fill="white"/>
<path
	d="M62.373,121c0-0.018,0-0.038,0-0.039c-0.001-0.025-0.005-0.138-0.005-0.138c-0.003-0.076-0.006-0.155-0.008-0.177     c-0.018-0.221-0.049-0.437-0.09-0.646c-0.573-2.999-3.387-5.805-7.188-6.862c-0.812-0.225-1.674-0.379-2.564-0.47     c-0.328-0.034-0.66-0.059-0.997-0.07c-0.095-0.004-0.191-0.008-0.287-0.011c-0.121-0.002-0.238-0.012-0.36-0.012     c-0.12,0-0.236,0.01-0.354,0.012c-0.096,0.002-0.191,0.006-0.287,0.011c-0.336,0.014-0.668,0.036-0.997,0.069     c-0.892,0.091-1.754,0.246-2.568,0.471c-3.801,1.062-6.61,3.863-7.184,6.862c-0.041,0.216-0.073,0.432-0.09,0.648     c-0.002,0.037-0.013,0.244-0.015,0.312l0.006,0.021c0,0.004,0,0.019,0,0.021c-0.001,0.11-0.002,0.49-0.003,1     c-0.003,1.5-0.006,4.098-0.006,4.098c-0.001,1.045,0.794,1.9,1.767,1.9h19.465c0.97,0,1.763-0.852,1.767-1.893     c0-0.004,0.001-0.008,0.001-0.017c0,0-0.001-2.597-0.001-4.096C62.374,121.48,62.373,121.102,62.373,121z" fill="white"/>
<path
	d="M74.262,109.333c0.461,0.265,0.961,0.463,1.49,0.593c0.373,0.092,0.76,0.146,1.158,0.16     c0.072,0.002,0.145,0.012,0.217,0.012c0.075,0,0.148-0.01,0.223-0.012c0.396-0.016,0.782-0.07,1.154-0.161     c0.529-0.13,1.029-0.33,1.49-0.595c0.955-0.548,1.736-1.357,2.25-2.334c0.254-0.484,0.441-1.009,0.55-1.562     c0.071-0.356,0.11-0.729,0.11-1.115c0-0.023-0.004-0.055-0.004-0.078c-0.045-3.153-2.608-5.698-5.773-5.698     c-3.167,0-5.73,2.544-5.777,5.692c0,0.027-0.004,0.06-0.004,0.084c0,0.385,0.039,0.757,0.109,1.113     c0.107,0.553,0.296,1.075,0.55,1.562C72.518,107.973,73.305,108.784,74.262,109.333z" fill="white"/>
<path
	d="M88.623,121c0-0.018,0-0.039,0-0.04c-0.001-0.026-0.005-0.138-0.005-0.138c-0.003-0.077-0.007-0.154-0.009-0.176     c-0.021-0.221-0.049-0.437-0.09-0.646c-0.571-3-3.392-5.807-7.188-6.863c-0.813-0.225-1.675-0.379-2.563-0.47     c-0.328-0.034-0.662-0.058-0.998-0.071c-0.096-0.004-0.188-0.007-0.285-0.01c-0.116-0.002-0.234-0.012-0.355-0.012     c-0.12,0-0.232,0.01-0.354,0.012c-0.1,0.002-0.189,0.006-0.287,0.01c-0.336,0.014-0.668,0.037-0.995,0.07     c-0.896,0.091-1.755,0.246-2.567,0.471c-3.8,1.062-6.609,3.863-7.185,6.863c-0.041,0.215-0.071,0.432-0.091,0.646     c-0.004,0.037-0.018,0.246-0.02,0.312l0.008,0.021c0,0.004,0,0.02,0,0.021c-0.002,0.109-0.004,0.491-0.005,1     c-0.003,1.501-0.006,4.095-0.006,4.095c-0.001,1.05,0.795,1.904,1.771,1.904h19.465c0.971,0,1.765-0.854,1.769-1.896     c0-0.004,0.001-0.006,0.001-0.014c0,0-0.001-2.595-0.002-4.095C88.623,121.482,88.623,121.104,88.623,121z" fill="white"/>
<path
	d="M100.51,109.331c0.463,0.265,0.963,0.465,1.492,0.595c0.372,0.092,0.757,0.146,1.153,0.16     c0.073,0.002,0.146,0.012,0.221,0.012s0.147-0.01,0.224-0.013c0.399-0.015,0.787-0.069,1.162-0.162     c0.526-0.13,1.023-0.33,1.482-0.593c0.954-0.548,1.736-1.357,2.25-2.334c0.254-0.484,0.441-1.009,0.55-1.562     c0.071-0.356,0.11-0.729,0.11-1.115c0-0.023-0.004-0.055-0.004-0.078c-0.045-3.153-2.608-5.698-5.774-5.698     c-3.164,0-5.729,2.545-5.774,5.692c0,0.029-0.004,0.06-0.004,0.084c0,0.386,0.038,0.758,0.109,1.115     c0.107,0.557,0.296,1.075,0.55,1.562C98.77,107.973,99.555,108.783,100.51,109.331z" fill="white"/>
<path
	d="M114.874,121c0-0.018,0-0.039,0-0.04c-0.002-0.026-0.006-0.138-0.006-0.138c-0.003-0.077-0.009-0.154-0.009-0.176     c-0.021-0.221-0.049-0.437-0.09-0.646c-0.572-3-3.393-5.807-7.188-6.863c-0.812-0.225-1.673-0.379-2.563-0.47     c-0.328-0.034-0.66-0.058-0.996-0.071c-0.096-0.004-0.188-0.007-0.287-0.01c-0.116-0.002-0.233-0.012-0.354-0.012     c-0.12,0-0.231,0.01-0.354,0.012c-0.099,0.002-0.189,0.006-0.286,0.01c-0.337,0.014-0.671,0.037-0.997,0.07     c-0.893,0.091-1.753,0.246-2.565,0.471c-3.802,1.062-6.608,3.863-7.185,6.863c-0.041,0.215-0.073,0.432-0.094,0.646     c-0.002,0.037-0.016,0.246-0.018,0.312l0.006,0.021c0,0.004,0,0.02,0,0.021c-0.001,0.109-0.002,0.491-0.003,1     c-0.003,1.501-0.006,4.095-0.006,4.095c-0.001,1.05,0.794,1.904,1.771,1.904h19.466c0.972,0,1.764-0.854,1.769-1.896     c0-0.004,0-0.006,0-0.014c0,0,0-2.595-0.001-4.095C114.874,121.482,114.874,121.104,114.874,121z" fill="white"/>
</g>
<g>
<path
	d="M126,58H46c-1.104,0-2-0.896-2-2V2c0-1.104,0.896-2,2-2h80c1.104,0,2,0.896,2,2v54C128,57.104,127.104,58,126,58z M48,54     h76V4H48V54z" fill="white"/>
</g>
<g>
<circle cx="17.062" cy="15.344" r="5.344" fill="white"/>
<path
	d="M60.019,25.826c-0.133-0.298-0.481-0.435-0.783-0.302l-20.643,9.205c-0.665-0.781-1.787-1.078-2.769-0.641l-5.7,2.537     v-6.438c0-3.92-3.205-7.126-7.125-7.126H11.125C7.206,23.062,4,26.268,4,30.188v19.593c0,1.311,1.063,2.375,2.375,2.375     s2.375-1.064,2.375-2.375V32.562c0,0,0.01-0.232,0.575-0.232c0.566,0,0.612,0.232,0.612,0.232v14.843v4.157V81.03     c0,1.641,1.33,2.97,2.969,2.97c1.639,0,2.969-1.329,2.969-2.97V50.562h2.375V81.03c0,1.641,1.329,2.97,2.969,2.97     c1.64,0,2.969-1.329,2.969-2.97V51.562v-4.157V32.562c0,0,0.018-0.213,0.603-0.213s0.584,0.213,0.584,0.213v7.719     c0,1.311,1.063,2.375,2.375,2.375c0.338,0,0.659-0.073,0.95-0.201c0.006-0.002,0.009-0.001,0.015-0.004l9.041-4.025     c1.028-0.458,1.568-1.569,1.359-2.631l20.604-9.185C60.019,26.474,60.152,26.124,60.019,25.826z" fill="white"/>
</g>
</g>
</g>
<g>
<path
	d="M76.997,39.154c-0.304,0-0.632-0.329-0.961-0.961c-0.304-0.582-0.455-1.037-0.455-1.391c0-0.126,0.024-0.253,0.075-0.379   c-0.126-0.506-0.303-1.189-0.557-2.049c-1.694-0.48-3.236-0.733-4.604-0.733c-0.784,0-1.973,0.076-3.541,0.229   c-0.253,1.163-0.354,2.124-0.354,2.857c0,0.278,0.025,0.582,0.074,0.885c-0.049,0.203-0.201,0.379-0.402,0.582   c-0.203,0.177-0.405,0.278-0.582,0.278c-0.506,0-0.86-0.202-1.037-0.582c-0.103-0.253-0.151-0.632-0.151-1.214   c0-0.456,0.101-1.29,0.354-2.504c-1.038,0.177-1.694,0.253-1.973,0.253c-0.607,0-0.885-0.379-0.885-1.138   c0-0.582,0.304-0.91,0.935-1.012c0.051,0,0.86-0.101,2.454-0.354c0.887-3.439,2.228-7.283,3.995-11.532   c0.204-0.531,0.354-0.86,0.433-0.986c0.228-0.354,0.506-0.557,0.834-0.557c0.43,0,0.91,0.531,1.467,1.593   c2.402,4.806,4.35,10.345,5.816,16.591c0.102,0.531,0.178,0.911,0.178,1.214C78.111,38.851,77.73,39.154,76.997,39.154z    M70.648,22.513c-1.162,2.656-2.199,5.69-3.11,9.129c1.239-0.152,2.276-0.228,3.11-0.228c0.91,0,2.176,0.153,3.744,0.456   C73.203,28.077,71.965,24.94,70.648,22.513z" fill="white"/>
<path
	d="M92.289,35.538c-0.885,0.607-2.176,1.163-3.87,1.669c-3.413,1.012-5.463,1.568-6.12,1.644   c-0.303,0-0.529-0.101-0.709-0.303c-0.201-0.203-0.277-0.456-0.277-0.733c0-0.43,0.152-0.759,0.48-0.961   c0.253-0.126,0.684-0.228,1.29-0.329c0-0.405,0-2.023,0.024-4.856c0-2.808,0-4.3,0-4.476c0-0.354,0-1.214,0.051-2.605   c0.025-1.366,0.051-2.048,0.051-2.099c-0.657,0.076-1.012,0.101-1.062,0.101c-0.81,0-1.188-0.329-1.188-1.037   c0-0.456,0.125-0.734,0.378-0.885c0.153-0.102,0.456-0.177,0.938-0.228c2.526-0.202,4.576-0.329,6.145-0.329   c1.188,0,2.176,0.228,2.959,0.632c0.986,0.557,1.492,1.391,1.492,2.504c0,1.012-0.632,2.023-1.846,3.034   c-0.76,0.657-1.998,1.442-3.719,2.378c2.149,0.176,3.692,0.405,4.604,0.682c1.619,0.557,2.428,1.467,2.428,2.731   C94.337,33.464,93.654,34.627,92.289,35.538z M89.986,31.086c-0.758-0.126-2.377-0.302-4.855-0.531v5.336   c4.704-1.265,7.083-2.427,7.083-3.489C92.214,31.846,91.454,31.39,89.986,31.086z M88.242,22.209c-0.405,0-0.885,0.025-1.492,0.051   c-0.811,0.051-1.289,0.076-1.466,0.076c-0.052,1.164-0.076,2.1-0.076,2.858v2.327c3.642-1.821,5.487-3.212,5.487-4.173   C90.695,22.589,89.859,22.209,88.242,22.209z" fill="white"/>
<path
	d="M108.963,36.676c-0.707,0.455-1.618,0.834-2.757,1.163c-1.087,0.304-1.946,0.456-2.554,0.456   c-1.721,0-3.035-0.683-3.945-1.998c-0.76-1.164-1.139-2.706-1.139-4.602c0-2.708,0.656-5.312,1.998-7.841   c1.519-2.833,3.363-4.249,5.488-4.249c0.531,0,1.139,0.203,1.795,0.607c0.582,0.379,1.062,0.81,1.416,1.265   c0.354,0.456,0.559,0.86,0.559,1.214c0,0.329-0.129,0.607-0.33,0.81c-0.253,0.228-0.531,0.329-0.835,0.329   s-0.707-0.303-1.265-0.936c-0.557-0.607-1.112-0.936-1.67-0.936c-1.111,0-2.226,1.113-3.312,3.313   c-1.086,2.225-1.617,4.451-1.617,6.651c0,2.731,0.961,4.072,2.883,4.072c1.213,0,2.631-0.455,4.223-1.391   c0.507-0.303,0.836-0.479,0.963-0.479c0.253,0,0.506,0.125,0.759,0.378c0.254,0.253,0.379,0.531,0.379,0.81   C110,35.791,109.646,36.246,108.963,36.676z" fill="white"/>
</g>
</svg>