<?xml version="1.0" ?>
<!DOCTYPE svg  PUBLIC '-//W3C//DTD SVG 1.1//EN'  'http://www.w3.org/Graphics/SVG/1.1/DTD/svg11.dtd'>
<svg enable-background="new 0 0 500 500" height="500px" id="Layer_1"
	version="1.1" viewBox="0 0 500 500" width="500px" xml:space="preserve"
	xmlns="http://www.w3.org/2000/svg"
	xmlns:xlink="http://www.w3.org/1999/xlink">
<g>
<circle cx="222.484" cy="121.896" fill="white" r="85.913" />
<path
	d="M224.568,431.565l160.052,3.166c13.669,0,24.753-11.083,24.753-24.753   c0-13.671-11.084-24.752-24.753-24.752l-135.601-17.591l-19.044-88.254c0,0-3.72-21.305-11.574-35.147   c-2.032-4.961-5.061-9.285-8.796-12.787c-2.857-3.403-6.019-6.626-9.512-9.606c-34.025-29.02-85.136-24.961-114.159,9.066   c-29.497,34.586-51.921,78.536-63.14,123.704C13.581,391.701,11.994,429,17.884,464h158.578l-12.251-160.82l25.029,101.512   C193.631,420.578,208.085,431.565,224.568,431.565z"
	fill="white" />
<path
	d="M369.904,377.015l17.134,2.222l-18.039-21.91c-2.088-2.505-5.809-2.847-8.319-0.761   c-2.508,2.086-2.849,5.813-0.762,8.32L369.904,377.015z"
	fill="white" />
<path
	d="M411.49,434.078l13.437,5.588l-4.008-13.438l-5.734-6.965c-1.286,4.358-3.398,8.355-6.161,11.818   L411.49,434.078z"
	fill="white" />
<rect fill="white" height="18" width="287" x="199" y="446" />
</g>
</svg>