<?xml version="1.0" ?>
<svg height="48" id="svg2" version="1.1" viewBox="0 0 48 48.000001"
	width="48" xmlns="http://www.w3.org/2000/svg"
	xmlns:cc="http://creativecommons.org/ns#"
	xmlns:dc="http://purl.org/dc/elements/1.1/"
	xmlns:inkscape="http://www.inkscape.org/namespaces/inkscape"
	xmlns:rdf="http://www.w3.org/1999/02/22-rdf-syntax-ns#"
	xmlns:sodipodi="http://sodipodi.sourceforge.net/DTD/sodipodi-0.dtd"
	xmlns:svg="http://www.w3.org/2000/svg">
	<defs id="defs4" />
	<g id="layer1" transform="translate(0,-1004.3622)">
	<path
		d="M 24 0 C 10.751166 0 1.2e-005 10.7512 0 24 C 1.2e-005 37.2489 10.751166 48 24 48 C 37.248835 48 47.999988 37.2489 48 24 C 47.999988 10.7512 37.248835 0 24 0 z M 24 1.0117188 C 36.702149 1.0117188 46.98827 11.2979 46.988281 24 C 46.98827 36.7022 36.702149 46.990234 24 46.990234 C 11.297851 46.990234 1.0117298 36.7022 1.0117188 24 C 1.0117298 11.2979 11.297851 1.0117188 24 1.0117188 z M 21.863281 10 L 21.863281 12.451172 C 21.863439 12.676272 21.692369 12.890453 21.472656 12.939453 C 20.225897 13.219753 19.035412 13.708466 17.951172 14.384766 C 17.761498 14.503066 17.492244 14.472053 17.333984 14.314453 L 15.611328 12.591797 L 12.591797 15.613281 L 14.318359 17.339844 C 14.476969 17.498444 14.507701 17.768884 14.388672 17.958984 C 13.709439 19.041084 13.217447 20.229009 12.933594 21.474609 C 12.88432 21.694309 12.670483 21.865434 12.445312 21.865234 L 10 21.865234 L 10 26.136719 L 12.451172 26.136719 C 12.67569 26.137419 12.88837 26.308344 12.9375 26.527344 C 13.217778 27.774044 13.706525 28.964528 14.382812 30.048828 C 14.501845 30.238928 14.471112 30.509469 14.3125 30.667969 L 12.591797 32.388672 L 15.611328 35.410156 L 17.337891 33.683594 C 17.496644 33.524594 17.768584 33.493281 17.958984 33.613281 C 19.041062 34.292581 20.228938 34.784459 21.474609 35.068359 C 21.692982 35.118259 21.862762 35.330688 21.863281 35.554688 L 21.863281 38 L 26.136719 38 L 26.136719 35.550781 C 26.136561 35.325581 26.307631 35.1115 26.527344 35.0625 C 27.774103 34.7822 28.964588 34.293488 30.048828 33.617188 C 30.238501 33.498787 30.507757 33.5298 30.666016 33.6875 L 32.388672 35.410156 L 35.408203 32.388672 L 33.681641 30.662109 C 33.523031 30.503609 33.492299 30.232969 33.611328 30.042969 C 34.29056 28.960869 34.782552 27.771091 35.066406 26.525391 C 35.116443 26.306391 35.330038 26.136419 35.554688 26.136719 L 38 26.136719 L 38 21.865234 L 35.548828 21.865234 C 35.32431 21.864534 35.11163 21.693709 35.0625 21.474609 C 34.782222 20.227909 34.293473 19.037325 33.617188 17.953125 C 33.498155 17.763125 33.528888 17.492484 33.6875 17.333984 L 35.408203 15.613281 L 32.388672 12.591797 L 30.662109 14.318359 C 30.503355 14.477359 30.231416 14.508672 30.041016 14.388672 C 28.958938 13.709372 27.771062 13.217494 26.525391 12.933594 C 26.306384 12.883594 26.136363 12.670012 26.136719 12.445312 L 26.136719 10 L 21.863281 10 z M 24 16 C 28.412356 16 32 19.5877 32 24 C 32 28.4124 28.412356 32 24 32 C 19.587644 32 16 28.4124 16 24 C 16 19.5877 19.587644 16 24 16 z M 24 17 C 20.128084 17 17 20.1281 17 24 C 17 27.8719 20.128084 31 24 31 C 27.871916 31 31 27.8719 31 24 C 31 20.1281 27.871916 17 24 17 z M 21.527344 20 L 26.496094 20 L 26.496094 21 L 24.650391 21 C 24.885092 21.3001 25.053279 21.6403 25.130859 22 L 26.496094 22 L 26.496094 23 L 25.130859 23 C 24.939335 23.891 24.242902 24.698281 23.158203 24.925781 L 25.552734 27.289062 L 24.849609 28 L 21.798828 24.992188 L 21.503906 24.992188 L 21.503906 23.992188 L 22.203125 23.992188 L 22.207031 23.992188 L 22.210938 23.992188 L 22.53125 23.992188 C 23.465633 23.992188 23.936126 23.549 24.105469 23 L 21.527344 23 L 21.527344 22 L 24.105469 22 C 23.935576 21.4515 23.464495 21.009766 22.53125 21.009766 L 21.503906 21.009766 L 21.503906 20.009766 L 21.527344 20.009766 L 21.527344 20 z "
		id="path13016"
		style="color:#000000;font-style:normal;font-variant:normal;font-weight:normal;font-stretch:normal;font-size:medium;line-height:normal;font-family:sans-serif;text-indent:0;text-align:start;text-decoration:none;text-decoration-line:none;letter-spacing:normal;word-spacing:normal;text-transform:none;direction:ltr;block-progression:tb;writing-mode:lr-tb;baseline-shift:baseline;text-anchor:start;display:inline;overflow:visible;visibility:visible;fill:white;fill-opacity:1;fill-rule:nonzero;stroke:none;enable-background:accumulate"
		transform="translate(0,1004.3622)" /></g></svg>