<?xml version="1.0" ?>
<!DOCTYPE svg  PUBLIC '-//W3C//DTD SVG 1.1//EN'  'http://www.w3.org/Graphics/SVG/1.1/DTD/svg11.dtd'>
<svg enable-background="new 0 0 64 64" height="64px" id="Layer_1"
	version="1.1" viewBox="0 0 64 64" width="64px" xml:space="preserve"
	xmlns="http://www.w3.org/2000/svg"
	xmlns:xlink="http://www.w3.org/1999/xlink">
<g>
<path
	d="M4.983,43.766h32.067v-2.146H7.446l26.476-0.484l-0.014-0.791l-25.6,0.467l25.666-3.879l-0.119-0.783L6.072,40.348   l0.059,0.393l-0.31-0.574l26.728-8.315l-0.235-0.757L5.512,39.433l0.118,0.379L5.154,38.93l0.233,0.321l0.294-0.214l0.12,0.25   l25.136-12.02l-0.342-0.715L7.983,37.365l20.843-15.13l-0.466-0.642L6.927,37.154L25.77,16.972l-0.578-0.54L5.738,37.267   l14.758-24.343l-0.677-0.41L5.707,35.791l8.599-25.043l-0.749-0.257L4.999,35.414L8.646,8.855L7.863,8.748L4.327,34.489V6.465   H2.181v32.068H2.24L4.983,43.766z M6.399,41.1l0.003,0.143l-0.071-0.133L6.399,41.1z M4.799,38.272l-0.063-0.117l0.11,0.066   L4.799,38.272z M4.733,37.396L4.725,37.41l0.002-0.016L4.733,37.396z M4.702,37.449l-0.184,0.302l-0.191-0.354L4.702,37.449z" fill="white"/>
<rect height="13.159" width="1.951" x="55.049" y="44.376" fill="white"/>
<rect height="13.159" width="2.926" x="59.074" y="44.376" fill="white"/>
<rect height="13.159" width="44.77" x="8.205" y="44.376" fill="white"/>
<rect height="13.159" width="4.131" x="2" y="44.376" fill="white"/>
</g>
</svg>