<?xml version="1.0" ?><svg enable-background="new 0 0 63.08 63.08" height="63.08px" id="Layer_2" version="1.1" viewBox="0 0 63.08 63.08" width="63.08px" xml:space="preserve" xmlns="http://www.w3.org/2000/svg" xmlns:xlink="http://www.w3.org/1999/xlink"><circle cx="31.54" cy="31.54" stroke="white" stroke-width="1" fill="#ff3971" r="31.54"/><path d="M12.2,43.44c0,0,3.01,0.86,7.07,2.01l-2.79-17.92L12.2,43.44z M25.27,47.13c7.79,2.17,16.02,4.41,15.23,3.92  c-0.45-0.28-0.2-2.81,0.36-6.19C35.72,45.64,29.62,46.52,25.27,47.13z M50.81,40.62c-1.71-0.24-6.32-25.25-6.32-25.25l-7.62,1.19  c0.54,0.84,0.87,1.83,0.87,2.9c0,2.96-2.41,5.37-5.38,5.37c-2.96,0-5.37-2.41-5.37-5.37c0-0.49,0.09-0.95,0.21-1.4l-9.35,1.46  l3.99,25.61C21.84,45.13,52.52,40.86,50.81,40.62z M32.36,22.55c2.26,0,4.09-1.83,4.09-4.09c0-1.25-0.57-2.35-1.46-3.1  c0.04,0.19,0.07,0.39,0.07,0.59c0,1.49-1.21,2.7-2.7,2.7c-1.49,0-2.7-1.21-2.7-2.7c0-0.2,0.03-0.4,0.07-0.59  c-0.88,0.75-1.46,1.86-1.46,3.1C28.28,20.71,30.11,22.55,32.36,22.55z M32.36,16.96c1.38,0,2.5-1.12,2.5-2.5  c0-1.38-1.12-2.5-2.5-2.5c-1.38,0-2.5,1.12-2.5,2.5C29.87,15.84,30.99,16.96,32.36,16.96z" fill="#FFFFFF"/></svg>