<?xml version="1.0" ?>
<!DOCTYPE svg  PUBLIC '-//W3C//DTD SVG 1.1//EN'  'http://www.w3.org/Graphics/SVG/1.1/DTD/svg11.dtd'>
<svg enable-background="new 0 0 300 300" id="Layer_1" version="1.1"
	viewBox="0 0 300 300" xml:space="preserve"
	xmlns="http://www.w3.org/2000/svg"
	xmlns:xlink="http://www.w3.org/1999/xlink">
<g>
<path
	d="M77.5,207.6H46.9c-1.3,0-2.3,1-2.3,2.3v30.6c0,1.3,1,2.3,2.3,2.3h30.6c1.3,0,2.3-1,2.3-2.3v-30.6   C79.8,208.6,78.8,207.6,77.5,207.6z M75.2,238.2h-26v-26h26V238.2z" style="fill:white" />
<path
	d="M121.4,207.6H90.7c-1.3,0-2.3,1-2.3,2.3v30.6c0,1.3,1,2.3,2.3,2.3h30.6c1.3,0,2.3-1,2.3-2.3v-30.6   C123.7,208.6,122.6,207.6,121.4,207.6z M119.1,238.2H93v-26h26V238.2z" style="fill:white"/>
<path
	d="M253.1,162.8h-30.6c-1.3,0-2.3,1-2.3,2.3v30.6c0,1.3,1,2.3,2.3,2.3h30.6c1.3,0,2.3-1,2.3-2.3v-30.6   C255.4,163.8,254.4,162.8,253.1,162.8z M250.8,193.4h-26v-26h26V193.4z" style="fill:white"/>
<path
	d="M209.3,120h-30.6c-1.3,0-2.3,1-2.3,2.3v30.6c0,1.3,1,2.3,2.3,2.3h30.6c1.3,0,2.3-1,2.3-2.3v-30.6   C211.6,121,210.5,120,209.3,120z M207,150.6h-26v-26h26V150.6z" style="fill:white"/>
<path
	d="M165.4,162.8h-30.6c-1.3,0-2.3,1-2.3,2.3v30.6c0,1.3,1,2.3,2.3,2.3h30.6c1.3,0,2.3-1,2.3-2.3v-30.6   C167.7,163.8,166.7,162.8,165.4,162.8z M163.1,193.4h-26v-26h26V193.4z" style="fill:white"/>
<path
	d="M209.3,162.8h-30.6c-1.3,0-2.3,1-2.3,2.3v30.6c0,1.3,1,2.3,2.3,2.3h30.6c1.3,0,2.3-1,2.3-2.3v-30.6   C211.6,163.8,210.5,162.8,209.3,162.8z M207,193.4h-26v-26h26V193.4z" style="fill:white"/>
<path
	d="M165.4,207.6h-30.6c-1.3,0-2.3,1-2.3,2.3v30.6c0,1.3,1,2.3,2.3,2.3h30.6c1.3,0,2.3-1,2.3-2.3v-30.6   C167.7,208.6,166.7,207.6,165.4,207.6z M163.1,238.2h-26v-26h26V238.2z" style="fill:white"/>
<path
	d="M209.3,207.6h-30.6c-1.3,0-2.3,1-2.3,2.3v30.6c0,1.3,1,2.3,2.3,2.3h30.6c1.3,0,2.3-1,2.3-2.3v-30.6   C211.6,208.6,210.5,207.6,209.3,207.6z M207,238.2h-26v-26h26V238.2z" style="fill:white"/>
<path
	d="M253.1,120h-30.6c-1.3,0-2.3,1-2.3,2.3v30.6c0,1.3,1,2.3,2.3,2.3h30.6c1.3,0,2.3-1,2.3-2.3v-30.6   C255.4,121,254.4,120,253.1,120z M250.8,150.6h-26v-26h26V150.6z" style="fill:white"/>
<path
	d="M253,207.6h-30.6c-1.3,0-2.3,1-2.3,2.3v30.6c0,1.3,1,2.3,2.3,2.3H253c1.3,0,2.3-1,2.3-2.3v-30.6   C255.3,208.6,254.2,207.6,253,207.6z M250.7,238.2h-26v-26h26V238.2z" style="fill:white"/>
<path
	d="M127.5,132.6c-27.9,16.5-42.2,40.2-47,49.2c-12.4-17.5-28-24.4-28.7-24.7c-1.2-0.5-2.5,0-3,1.2c-0.5,1.2,0,2.5,1.2,3   c0.2,0.1,17.1,7.6,28.9,26.3c0.4,0.7,1.2,1.1,1.9,1.1c0.1,0,0.1,0,0.2,0c0.9-0.1,1.6-0.6,1.9-1.4c0.1-0.3,13.9-31.2,46.9-50.8   c1.1-0.6,1.5-2.1,0.8-3.2C130,132.3,128.6,132,127.5,132.6z" style="fill:white"/>
<path
	d="M284.1,45.4h-31V29.1c0-6.1-5-11.1-11.1-11.1h-2.1c-6.1,0-11.1,5-11.1,11.1v16.3h-36.7V29.1c0-6.1-5-11.1-11.1-11.1h-2.1   c-6.1,0-11.1,5-11.1,11.1v16.3h-36.7V29.1c0-6.1-5-11.1-11.1-11.1H118c-6.1,0-11.1,5-11.1,11.1v16.3H70.2V29.1   c0-6.1-5-11.1-11.1-11.1H57c-6.1,0-11.1,5-11.1,11.1v16.3h-30C9.9,45.4,5,50.3,5,56.3v214.8c0,6,4.9,10.9,10.9,10.9h268.2   c6,0,10.9-4.9,10.9-10.9V56.3C295,50.3,290.1,45.4,284.1,45.4z M233.4,29.1c0-3.6,2.9-6.5,6.5-6.5h2.1c3.6,0,6.5,2.9,6.5,6.5v27   c0,3.6-2.9,6.5-6.5,6.5h-2.1c-3.6,0-6.5-2.9-6.5-6.5V29.1z M172.5,29.1c0-3.6,2.9-6.5,6.5-6.5h2.1c3.6,0,6.5,2.9,6.5,6.5v27   c0,3.6-2.9,6.5-6.5,6.5h-2.1c-3.6,0-6.5-2.9-6.5-6.5V29.1z M111.5,29.1c0-3.6,2.9-6.5,6.5-6.5h2.1c3.6,0,6.5,2.9,6.5,6.5v27   c0,3.6-2.9,6.5-6.5,6.5H118c-3.6,0-6.5-2.9-6.5-6.5V29.1z M50.5,29.1c0-3.6,2.9-6.5,6.5-6.5h2.1c3.6,0,6.5,2.9,6.5,6.5v27   c0,3.6-2.9,6.5-6.5,6.5H57c-3.6,0-6.5-2.9-6.5-6.5V29.1z M290.4,271.1c0,3.5-2.8,6.3-6.3,6.3H15.9c-3.5,0-6.3-2.8-6.3-6.3V56.3   c0-3.5,2.8-6.3,6.3-6.3h30v6.1c0,6.1,5,11.1,11.1,11.1h2.1c6.1,0,11.1-5,11.1-11.1V50h36.7v6.1c0,6.1,5,11.1,11.1,11.1h2.1   c6.1,0,11.1-5,11.1-11.1V50h36.7v6.1c0,6.1,5,11.1,11.1,11.1h2.1c6.1,0,11.1-5,11.1-11.1V50h36.7v6.1c0,6.1,5,11.1,11.1,11.1h2.1   c6.1,0,11.1-5,11.1-11.1V50h31c3.5,0,6.3,2.8,6.3,6.3V271.1z" style="fill:white"/>
<path
	d="M265.8,102.8H34.2c-3.7,0-6.8,3-6.8,6.8v143.5c0,3.7,3,6.8,6.8,6.8h231.6c3.7,0,6.8-3,6.8-6.8V109.6   C272.6,105.9,269.6,102.8,265.8,102.8z M268,253.1c0,1.2-1,2.2-2.2,2.2H34.2c-1.2,0-2.2-1-2.2-2.2V109.6c0-1.2,1-2.2,2.2-2.2h231.6   c1.2,0,2.2,1,2.2,2.2V253.1z" style="fill:white"/>
</g>
</svg>