<?xml version="1.0" ?>
<!DOCTYPE svg  PUBLIC '-//W3C//DTD SVG 1.1//EN'  'http://www.w3.org/Graphics/SVG/1.1/DTD/svg11.dtd'>
<svg enable-background="new 0 0 256 256" height="256px" id="Layer_1"
	version="1.1" viewBox="0 0 256 256" width="256px" xml:space="preserve"
	xmlns="http://www.w3.org/2000/svg"
	xmlns:xlink="http://www.w3.org/1999/xlink">
<g>
<g>
<path
	d="M162,69h70c13.211,0,24,10.795,24,24.006v87.998C256,194.216,245.211,205,232,205h-10.596l2.576,35.58     c0.393,5.517-6.393,8.738-10.457,4.398L174.072,205h-46.068C114.793,205,104,194.217,104,181.004V155h12v26.004     c0,6.588,5.418,11.996,12.004,11.996H177v0.021c1,0,2.872,0.598,4.044,1.787l29.923,30.434l-1.899-25.474     c-0.379-3.782,2.351-6.769,5.896-6.769H232c6.588,0,12-5.408,12-11.996V93.006C244,86.418,238.588,81,232,81h-70V69L162,69z      M196.719,165l-3.965-13h-21.01l-3.949,13h-12.973l20.033-57h14.707l20.113,57H196.719L196.719,165z M175.055,141h14.547     c-3.727-12-5.834-18.797-6.305-20.383c-0.479-1.604-0.822-2.876-1.021-3.804C181.424,120.092,179.012,128,175.055,141     L175.055,141z"
	fill="white" />
<path clip-rule="evenodd"
	d="M24,9h103.994C141.205,9,152,19.791,152,33.002v87.999     C152,134.212,141.205,145,127.994,145H81.928l-39.451,39.977c-4.064,4.341-10.852,1.118-10.457-4.398L34.596,145H24     c-13.211,0-24-10.789-24-23.999V33.002C0,19.791,10.789,9,24,9L24,9z M103.016,71.118c0,10.976-3.279,21.824-13.979,26.709     L102.408,113H87l-10.1-13H76c-18.525,0-27.016-11.42-27.016-29.127c0-17.783,8.588-29.033,27.094-29.033     C94.594,41.84,103.016,53.41,103.016,71.118L103.016,71.118z M61.598,71.118c0,9.864,2.902,19.146,14.402,19.146     c9.605,0,14.402-6.387,14.402-19.146c0-12.786-4.77-19.172-14.324-19.172C64.588,51.946,61.598,61.244,61.598,71.118     L61.598,71.118z"
	fill="white" fill-rule="evenodd" />
</g>
</g>
</svg>