<?xml version="1.0" ?>
<svg enable-background="new 0 0 32 32" version="1.1" viewBox="0 0 32 32"
	xml:space="preserve" xmlns="http://www.w3.org/2000/svg"
	xmlns:xlink="http://www.w3.org/1999/xlink">
	<g id="Glyph">
	<circle cx="16" cy="16" r="4.183" fill="white"/>
	<path
		d="M32,18.4v-4.8l-4.882-0.489c-0.279-1.028-0.707-1.994-1.253-2.878l3.148-3.85l-3.392-3.394l-4.002,3.276   c-0.837-0.441-1.736-0.78-2.684-0.993L18.408,0H16.01h-0.02h-2.398l-0.527,5.272c-0.947,0.214-1.847,0.553-2.684,0.993L6.379,2.989   L2.987,6.383l3.148,3.85c-0.546,0.885-0.973,1.851-1.253,2.878L0,13.6v4.8l4.889,0.489c0.281,1.025,0.703,1.992,1.248,2.874   l-3.151,3.853l3.392,3.394l4.002-3.276c0.837,0.441,1.737,0.779,2.685,0.993L13.593,32h2.398h0.02h2.398l0.527-5.272   c0.947-0.214,1.847-0.552,2.685-0.993l4.002,3.276l3.392-3.394l-3.151-3.853c0.546-0.884,0.967-1.85,1.248-2.874L32,18.4z    M15.999,23.22c-3.985,0-7.216-3.233-7.216-7.22c0-3.988,3.231-7.22,7.216-7.22c3.985,0,7.216,3.233,7.216,7.22   C23.215,19.988,19.985,23.22,15.999,23.22z" fill="white"/></g></svg>