<?xml version="1.0" ?>
<!DOCTYPE svg  PUBLIC '-//W3C//DTD SVG 1.1//EN'  'http://www.w3.org/Graphics/SVG/1.1/DTD/svg11.dtd'>
<svg enable-background="new 0 0 256 256" height="256px" id="Layer_1"
	version="1.1" viewBox="0 0 256 256" width="256px" xml:space="preserve"
	xmlns="http://www.w3.org/2000/svg"
	xmlns:xlink="http://www.w3.org/1999/xlink">
<g>
<g>
<path clip-rule="evenodd"
	d="M86.664,129.185c-4.795,9.604-14.018,21.531-25.621,21.531     c-11.6,0-20.816-11.917-25.615-21.515c-6.046-5.482-8.295-10.109-9.132-15.918c-8.136,6.882-7.645,25.806-7.369,33.755     c-27.337,3.154-18.743-36.808,6.899-40.854c-0.027-1.674-0.024-3.459-0.024-5.384c0-19.075,16.216-34.54,35.24-34.54     c19.023,0,35.242,15.465,35.242,34.54c0,1.831-0.03,3.619-0.12,5.37c25.715,3.964,34.363,44.025,6.992,40.868     c0.279-8.071,0.784-27.455-7.747-34.064C94.304,118.942,91.871,124.356,86.664,129.185L86.664,129.185z M86.393,108.192     c-8.375,2.123-16.365,2.295-26.338,0.442c0.893-5.596,0.563-8.402-0.254-13.942c-1.803,6.98-3.908,11.973-8.006,15.413     c-1.687,0.506-3.408,0.478-5.543,0.158c1.156-4.954,1.256-7.449,0.343-11.996c-1.859,5.269-3.413,8.066-7.079,11.863     c-1.59,0.404-1.945,0.773-3.351,1.051c1.39,7.372,4.454,14.972,8.515,21.163c4.908,7.482,10.093,11.716,16.363,11.716     s11.454-4.234,16.362-11.716C82.018,125.31,85.345,116.46,86.393,108.192z"
	fill="white" fill-rule="evenodd" />
<path clip-rule="evenodd"
	d="M112.168,199.613c2.611,17.027,4.242,35.552,4.541,47.525     c0.027,1.047-0.333,1.962-1.064,2.716c-0.732,0.754-1.643,1.132-2.688,1.132H9.985c-1.045,0-1.956-0.378-2.688-1.132     c-0.732-0.754-0.856-1.673-0.83-2.719c0.299-11.973,1.695-30.495,4.307-47.524c5.136,1.669,10.434,3.097,15.918,4.529     c10.683,2.79,22.058,5.735,34.267,6.738h1.023c12.209-1.003,23.584-3.948,34.268-6.737     C101.732,202.71,107.032,201.282,112.168,199.613z"
	fill="white" fill-rule="evenodd" />
<path clip-rule="evenodd"
	d="M31.721,158.152c2.966-1.291,6.012-2.376,9.115-3.257     c-1.904,10.274-2.558,20.547-2.558,30.82c6.673-4.779,16.521-9.558,23.192-14.338c6.674,4.78,16.523,9.558,23.195,14.338     c0-10.274-0.654-20.547-2.559-30.82c3.104,0.881,6.148,1.966,9.114,3.257c6.983,3.038,12.698,5.859,14.952,13.143     c1.705,5.509,3.248,12.405,4.597,19.903c0.069,0.384,0.138,0.768,0.206,1.155c-5.312,1.747-10.819,3.376-16.548,4.872     c-10.224,2.669-21.161,4.907-32.958,6.621c-11.797-1.716-22.734-3.952-32.958-6.621c-5.727-1.495-11.234-3.125-16.546-4.872     c0.08-0.453,0.16-0.906,0.241-1.355c1.34-7.421,2.872-14.243,4.561-19.703C19.024,164.011,24.736,161.19,31.721,158.152z"
	fill="white" fill-rule="evenodd" />
<ellipse clip-rule="evenodd" cx="198.215" cy="194.987" fill="white"
	fill-rule="evenodd" rx="5.412" ry="5.425" />
<path clip-rule="evenodd"
	d="M202.625,150.969c-5.179,10.647-7.447,10.12-17.761,17.859     c-10.314-7.739-12.583-7.212-17.763-17.859c-2.033,0.576-7.88,1.374-11.452,2.372c8.202,14.246,10.527,15.952,24.722,25.108     c1.311,0.844,2.686,1.731,4.493,2.919c1.804-1.186,3.177-2.072,4.489-2.917c14.136-9.116,16.686-11.146,24.726-25.11     C210.506,152.343,204.659,151.545,202.625,150.969z"
	fill="white" fill-rule="evenodd" />
<path clip-rule="evenodd"
	d="M151.074,104.231c-5.257-15.017-1.117-24.043,5.298-31.524     c8.378-9.765,20.054-14.287,31.299-13.532c-0.577-1.84-0.753-3.797-0.423-6.528c0.1-0.827,7.762,7.383,8.21,6.225     c0.411-1.066,4.423-9.433,4.794-6.086c0.617,5.552,2.603,9.371,3.58,11.376c2.314-1.757,11.942-5.631,10.004-2.957     c-2.777,3.835-3.565,6.329-3.834,7.924c1.681,1.629,3.244,3.457,4.662,5.487c7.098,10.165,7.193,19.609,3.365,29.523     c2.842,1.221,3.406,6.541,2.588,8.871c-0.639,1.813-4.018,5.92-6.076,6.39c-4.672,12.434-14.861,31.313-29.926,31.313     c-15.951,0-24.582-18.38-29.063-31.241c-2.63,0.114-6.13-4.366-6.867-6.463C147.884,110.729,148.465,105.592,151.074,104.231     L151.074,104.231z M211.17,106.543c-5.186-4.368-8.5-9.358-10.211-15.698c-10.14,10.987-28.161,13.619-42.51,12.666     c3.318,13.644,10.481,39.939,26.166,40.327C198.488,143.384,208.61,118.535,211.17,106.543z"
	fill="white" fill-rule="evenodd" />
<path clip-rule="evenodd"
	d="M149.872,155.033c-9.666,2.991-20.162,7.168-21.724,12.221     c-5.809,18.764-8.487,58.59-8.939,78.027c-0.076,3.153,2.418,5.705,5.562,5.705c40.061,0,80.122,0,120.184,0     c3.145,0,5.638-2.552,5.562-5.705c-0.456-19.437-3.139-59.27-8.938-78.03c-1.56-5.048-12.059-9.227-21.725-12.218l-1.533,2.661     c-5.905,12.846-13.527,17.773-25.794,25.687c-1.537,0.991-3.528,2.031-4.528,2.941v58.648h-0.321h-5.412H182v-58.507     c-1-0.943-3.153-2.037-4.773-3.083c-12.27-7.912-19.912-12.839-25.814-25.685L149.872,155.033z"
	fill="white" fill-rule="evenodd" />
<path clip-rule="evenodd" d="M0,244.97c86,0,171,0,256,0V256H0V244.97z"
	fill="white" fill-rule="evenodd" />
</g>
</g>
</svg>