<?xml version="1.0" ?>
<!DOCTYPE svg  PUBLIC '-//W3C//DTD SVG 1.1//EN'  'http://www.w3.org/Graphics/SVG/1.1/DTD/svg11.dtd'>
<svg enable-background="new 0 0 256 256" height="256px" id="Layer_1"
	version="1.1" viewBox="0 0 256 256" width="256px" xml:space="preserve"
	xmlns="http://www.w3.org/2000/svg"
	xmlns:xlink="http://www.w3.org/1999/xlink">
<g>
<g>
<path clip-rule="evenodd"
	d="M208.622,54.862c7.349,5.876,3.219,17.853-6.253,17.853     c-9.471,0-13.601-11.977-6.252-17.853c0-13.321,0-12.741,0-31.688c0-8.233,12.505-8.233,12.505,0v13.467h30.614     c7.579,0,13.764,6.189,13.764,13.765v174.807c0,7.573-6.19,13.764-13.764,13.764L16.764,239C9.191,239,3,232.796,3,225.237     V50.384C3,42.803,9.188,36.62,16.764,36.62h20.664v11.792c-3.961,0-12.117-0.512-17.503-0.006     c-2.512,0.236-5.153,0.535-5.153,3.645v69.147c76.035,0,150.397,0,226.432,0V52.051c0-1.99-1.651-3.639-3.64-3.639h-28.941     V54.862L208.622,54.862z M186.188,48.412h-27.15v6.45c7.346,5.876,3.218,17.853-6.255,17.853c-9.472,0-13.6-11.977-6.253-17.853     c0-13.062,0-13.308,0-31.688c0-8.233,12.508-8.233,12.508,0V36.62h27.15V48.412L186.188,48.412z M136.601,48.412h-27.151v6.45     c7.346,5.876,3.219,17.853-6.255,17.853c-9.471,0-13.601-11.977-6.253-17.853c0-13.257,0-12.883,0-31.688     c0-8.233,12.508-8.233,12.508,0V36.62h27.151V48.412L136.601,48.412z M87.013,48.412H59.861v6.45     c7.349,5.876,3.219,17.853-6.253,17.853c-9.471,0-13.601-11.977-6.255-17.853c0-12.871,0-13.737,0-31.688     c0-8.233,12.508-8.233,12.508,0V36.62h27.151V48.412L87.013,48.412z M33.769,91.957c0-3.921,5.955-3.921,5.955,0     c0,8.17,1.544,16.506-2.977,16.506C32.227,108.463,33.769,100.127,33.769,91.957L33.769,91.957z M79.391,91.957     c0-3.921,5.955-3.921,5.955,0c0,8.17,1.542,16.506-2.978,16.506C77.847,108.463,79.391,100.127,79.391,91.957L79.391,91.957z      M125.011,91.957c0-3.921,5.955-3.921,5.955,0c0,8.17,1.544,16.506-2.978,16.506C123.469,108.463,125.011,100.127,125.011,91.957     L125.011,91.957z M170.633,91.957c0-3.921,5.955-3.921,5.955,0c0,8.17,1.541,16.506-2.978,16.506     C169.089,108.463,170.633,100.127,170.633,91.957L170.633,91.957z M216.252,91.957c0-3.921,5.956-3.921,5.956,0     c0,8.17,1.543,16.506-2.978,16.506C214.711,108.463,216.252,100.127,216.252,91.957L216.252,91.957z M241.203,127.154h-41.806     v21.174h41.806V127.154L241.203,127.154z M241.203,154.285h-41.806v21.172h41.806V154.285L241.203,154.285z M241.203,181.413     h-41.806v21.173h41.806V181.413L241.203,181.413z M241.203,208.541H14.772c0,3.48-0.424,9.865-0.068,14.197     c0.201,2.479,0.579,5.304,3.707,5.304h219.153c1.99,0,3.64-1.649,3.64-3.64V208.541L241.203,208.541z M14.772,202.586h41.807     v-21.173H14.772V202.586L14.772,202.586z M14.772,175.457h41.807v-21.172H14.772V175.457L14.772,175.457z M14.772,148.328h41.807     v-21.174H14.772V148.328L14.772,148.328z M62.536,202.586H102.2v-21.173H62.536V202.586L62.536,202.586z M62.536,175.457H102.2     v-21.172H62.536V175.457L62.536,175.457z M62.536,148.328H102.2v-21.174H62.536V148.328L62.536,148.328z M108.156,202.586h39.666     v-21.173h-39.666V202.586L108.156,202.586z M108.156,175.457h39.666v-21.172h-39.666V175.457L108.156,175.457z M108.156,148.328     h39.666v-21.174h-39.666V148.328L108.156,148.328z M153.777,202.586h39.665v-21.173h-39.665V202.586L153.777,202.586z      M153.777,175.457h39.665v-21.172h-39.665V175.457L153.777,175.457z M153.777,148.328h39.665v-21.174h-39.665V148.328     L153.777,148.328z"
	fill="white" fill-rule="evenodd" />
</g>
</g>
</svg>